<svg width="133" height="35" viewBox="0 0 133 35" fill="none" xmlns="http://www.w3.org/2000/svg">
<path d="M39.6417 12.9036H47.6611C51.3911 12.9036 53.2768 15.1192 53.2768 18.3561C53.2768 21.8048 50.8316 23.693 47.1223 23.693H44.2212V27.5849H39.6624V12.9036H39.6417ZM44.2005 16.4487V20.2828H46.7908C48.0341 20.2828 48.7801 19.5699 48.7801 18.2983C48.7801 17.3735 48.2206 16.4487 46.7701 16.4487H44.2005Z" fill="white"/>
<path d="M55.2253 12.9036H63.6385C67.2234 12.9036 69.0262 14.9651 69.0262 17.9322C69.0262 20.0323 68.1144 21.5158 66.5603 22.325L69.1298 27.5849H64.1358L62.1465 23.115H59.6598V27.5849H55.1838V12.9036H55.2253ZM59.6805 16.3331V19.8011H62.6438C63.8042 19.8011 64.4881 19.1653 64.4881 18.0478C64.4881 17.123 63.9907 16.3523 62.706 16.3523H59.6805V16.3331Z" fill="white"/>
<path d="M71.5739 12.9036H76.1328V27.5849H71.5739V12.9036Z" fill="white"/>
<path d="M83.2201 19.4928L83.4066 27.5849H79.3036V12.9036H84.1733L88.6493 22.7682L93.1045 12.9036H98.1193V27.5849H93.8505L94.0577 19.1267L90.162 27.5849H87.0122L83.2201 19.4928Z" fill="white"/>
<path d="M110.201 25.6197H104.689L104.067 27.5849H99.5494L104.813 12.9036H110.242L115.505 27.5849H110.864L110.201 25.6197ZM105.683 22.4599H109.206L107.445 17.0459L105.683 22.4599Z" fill="white"/>
<path d="M123.711 23.0957L120.831 27.5849H115.94L121.224 20.2057L116.21 12.9036H121.556L124.25 17.4698L126.882 12.9036H131.772L126.654 20.1093L132.021 27.6041H126.654L123.711 23.0957Z" fill="white"/>
<path d="M39.6419 0.919367C39.6419 1.20837 39.4969 1.4781 39.2689 1.63224C38.668 2.09464 32.3892 6.98841 23.976 15.8126L22.5462 13.8859C22.0903 13.2887 21.365 12.9033 20.5154 12.9033H13.8843L19.6036 20.5522C16.6404 23.8469 13.5321 27.6232 10.3616 31.6692C5.86488 29.8774 0.000528475 27.6232 0.000528475 23.0184C-0.144526 13.9052 29.6124 2.53778 38.3571 0.0330926C39.1446 -0.140309 39.6419 0.399163 39.6419 0.919367ZM23.4787 25.7157C22.4426 27.3341 20.9091 30.07 19.4171 34.2509C24.0796 35.5033 27.3951 34.8289 27.9339 34.7326C28.5763 34.5977 29.0322 34.1161 29.0322 33.5188C29.0322 33.2491 28.9286 32.9793 28.7628 32.7867L23.4787 25.7157Z" fill="white"/>
</svg>
