<svg width="274" height="276" viewBox="0 0 274 276" fill="none" xmlns="http://www.w3.org/2000/svg">
<path d="M241.701 198.017C222.655 243.434 177.761 275.68 125.612 275.68C73.9158 275.68 29.4754 244.342 10.4296 199.38" fill="#444444"/>
<path d="M10.4299 199.38C7.70904 193.021 5.44167 186.209 3.62778 179.396C1.36042 169.405 0 159.413 0 148.967C0 79.0253 56.2306 22.2542 125.612 22.2542C194.993 22.2542 251.677 78.5711 251.677 148.513C251.677 158.505 250.317 168.496 248.05 178.034C246.236 184.846 244.422 191.659 241.701 198.017" fill="#D6D6D6"/>
<path d="M155.088 55.8627L153.727 61.7668L170.052 54.5002L184.11 59.0418L187.284 65.8544L188.191 79.0253L202.249 72.6669L218.12 73.5752L223.108 79.9336L225.376 88.5628L224.015 95.8295L238.073 85.8378H246.689L251.677 89.4711L257.119 91.742L260.747 96.7378L262.561 102.188L267.549 95.3753V75.3919L263.014 49.9585L253.491 37.2418L233.992 25.8876L220.388 21.3459L205.876 19.0751H198.167L182.749 24.9792L170.052 34.0626L155.541 52.2293L155.088 55.8627Z" fill="#9B9999"/>
<path d="M80.7178 103.55H48.9747V197.109H80.7178V103.55Z" fill="#747474"/>
<path d="M151.006 183.938C163.028 183.938 172.773 174.178 172.773 162.138C172.773 150.098 163.028 140.338 151.006 140.338C138.985 140.338 129.24 150.098 129.24 162.138C129.24 174.178 138.985 183.938 151.006 183.938Z" fill="#747474"/>
<path d="M233.539 20.4375C200.889 7.26666 163.704 23.1626 150.553 55.8627C150.553 56.3169 150.553 56.3168 150.553 56.771L148.286 69.4877C147.832 71.7586 149.193 73.5753 151.007 74.0294C152.821 74.4836 154.634 73.5753 155.541 71.7586C158.716 63.5835 167.785 59.496 175.494 62.6752C183.657 65.8544 187.738 74.9378 184.564 82.6586C184.564 83.1128 184.564 83.1128 184.11 83.5669C183.203 85.3836 184.11 87.6545 186.378 88.5628C188.191 89.4711 190.459 88.5628 191.366 86.2919C194.087 79.9336 200.889 75.8461 207.691 76.7544L191.366 107.184V103.096C191.366 101.28 189.552 99.4628 187.738 99.4628H142.844V84.4753C142.844 82.6586 141.03 80.8419 139.216 80.8419H96.1364C94.3226 80.8419 92.5087 82.6586 92.5087 84.4753V99.4628H47.1614C45.3475 99.4628 43.5336 101.28 43.5336 103.096V198.926C43.5336 200.742 45.3475 202.559 47.1614 202.559H188.191C190.005 202.559 191.819 200.742 191.819 198.926V122.171C192.273 121.717 192.726 121.263 193.18 120.809L215.4 79.4794C221.295 83.5669 223.562 91.2878 221.295 98.1003C220.388 99.917 221.295 102.188 223.109 103.096C224.923 104.005 227.19 103.096 228.097 101.28C231.271 93.1045 240.794 89.4711 248.503 93.1045C256.212 96.2837 259.84 104.913 257.119 113.088C256.212 114.905 257.119 117.175 259.387 118.084C261.201 118.992 263.468 118.084 264.375 115.813V115.359L270.27 100.371C281.153 68.1252 265.282 32.7001 233.539 20.4375ZM99.7642 87.6545H136.042V97.192H99.7642V87.6545ZM151.46 106.275V135.796H150.553C149.193 135.796 147.832 135.796 146.472 136.25V106.275H151.46ZM150.553 178.488C140.577 178.488 132.414 170.313 132.414 160.321C132.414 150.33 140.577 142.155 150.553 142.155C160.53 142.155 168.692 150.33 168.692 160.321C168.692 170.767 160.53 178.488 150.553 178.488ZM139.67 106.275V138.521C127.426 144.425 121.984 159.413 128.333 172.13C130.6 177.126 134.682 181.213 139.67 183.484V194.838H95.683V106.275H139.67ZM50.7892 106.275H76.6371V194.838H50.7892V106.275ZM83.4392 194.384V105.821H88.4274V194.384H83.4392ZM146.925 194.384V185.301C148.286 185.301 149.646 185.755 151.007 185.755H151.914V194.384H146.925ZM184.564 194.384H158.716V184.392C171.866 179.851 178.668 165.771 174.587 152.601C171.866 145.334 166.425 139.43 158.716 136.705V105.821H184.564V194.384ZM263.468 95.8295C257.573 84.4753 243.969 79.4794 232.178 85.3836C231.271 85.8378 229.911 86.7461 229.004 87.2003C226.737 74.4836 214.493 66.3085 201.796 68.5794C198.621 69.0335 195.447 70.3961 192.726 72.2127C192.273 70.3961 191.819 69.0336 191.366 67.6711C186.378 55.8627 172.773 50.4127 160.983 55.4085C160.076 55.8627 159.169 56.3168 158.262 56.771C170.506 28.1584 203.609 15.4417 232.178 27.7042C258.48 39.5126 272.084 68.5794 263.468 95.8295Z" fill="#333333"/>
<path d="M63.9401 67.2169C82.5325 67.2169 97.497 52.2293 97.497 33.6084C97.497 14.9876 82.5325 0 63.9401 0C45.3477 0 30.3831 14.9876 30.3831 33.6084C30.3831 52.2293 45.3477 67.2169 63.9401 67.2169ZM63.9401 13.1709C75.2769 13.1709 84.3463 22.2542 84.3463 33.6084C84.3463 44.9626 75.2769 54.046 63.9401 54.046C52.6033 54.046 43.5338 44.9626 43.5338 33.6084C43.5338 22.2542 52.6033 13.1709 63.9401 13.1709Z" fill="#333333"/>
<path d="M64.3931 59.9502C78.919 59.9502 90.6945 48.1566 90.6945 33.6084C90.6945 19.0603 78.919 7.26666 64.3931 7.26666C49.8672 7.26666 38.0917 19.0603 38.0917 33.6084C38.0917 48.1566 49.8672 59.9502 64.3931 59.9502Z" fill="#444444"/>
</svg>
