<svg width="104" height="104" viewBox="0 0 104 104" fill="none" xmlns="http://www.w3.org/2000/svg">
<path d="M94.5371 34.1549C91.6223 34.9461 89.8999 37.9501 90.6911 40.8649C91.6278 44.3174 92.1028 47.9033 92.1028 51.52C92.1028 62.3602 87.8811 72.5514 80.2168 80.2168C72.5514 87.8822 62.3602 92.1028 51.52 92.1028C40.6798 92.1028 30.4886 87.8811 22.8232 80.2168C15.1578 72.5514 10.9372 62.3602 10.9372 51.52C10.9372 40.6798 15.1589 30.4886 22.8232 22.8232C30.4886 15.1578 40.6798 10.9372 51.52 10.9372C56.944 10.9372 62.207 11.9874 67.1638 14.0602C69.9496 15.225 73.1531 13.9115 74.319 11.1245C75.4837 8.33762 74.1702 5.13525 71.3833 3.96935C65.0832 1.33561 58.4008 0 51.52 0C44.6392 0 37.819 1.36316 31.4639 4.0509C25.328 6.64607 19.8192 10.3598 15.0895 15.0895C10.3598 19.8192 6.64607 25.328 4.0509 31.4639C1.36316 37.8201 0 44.5676 0 51.52C0 58.4724 1.36316 65.221 4.0509 71.5761C6.64607 77.712 10.3598 83.2208 15.0895 87.9505C19.8192 92.6802 25.328 96.3939 31.4639 98.9891C37.819 101.677 44.5665 103.04 51.52 103.04C58.4735 103.04 65.221 101.677 71.5761 98.9891C77.712 96.3939 83.2208 92.6802 87.9505 87.9505C92.6802 83.2208 96.3939 77.712 98.9891 71.5761C101.677 65.221 103.04 58.4735 103.04 51.52C103.04 46.9357 102.437 42.3867 101.247 38.0008C100.457 35.0861 97.454 33.3648 94.5371 34.1549Z" fill="#149100"/>
<path d="M34.4439 45.1726C32.3082 43.0369 28.8458 43.0369 26.7101 45.1726C24.5745 47.3082 24.5745 50.7706 26.7101 52.9063L44.9755 71.1717C46.0037 72.1998 47.3955 72.7729 48.8424 72.7729C48.9438 72.7729 49.0441 72.7696 49.1454 72.764C50.6992 72.6781 52.1417 71.9343 53.1137 70.7188L92.1548 21.8898C94.0403 19.5305 93.6579 16.0901 91.2986 14.2035C88.9392 12.3169 85.4988 12.7004 83.6122 15.0597L48.3884 59.116L34.4439 45.1715V45.1726Z" fill="#149100"/>
</svg>
